<svg width="760" height="197.5" viewBox="0 0 760 197.5" xmlns="http://www.w3.org/2000/svg">
  <defs>
    <linearGradient id="hg" x1="0%" y1="0%" x2="100%" y2="0%">
      <stop offset="0%" style="stop-color:#58a6ff;stop-opacity:0.15"/>
      <stop offset="100%" style="stop-color:#0d1117;stop-opacity:0"/>
    </linearGradient>
    <clipPath id="cc"><rect width="760" height="197.5" rx="12"/></clipPath>
  </defs>

  <!-- Card -->
  <rect width="760" height="197.5" rx="12" fill="#0d1117" stroke="#30363d" stroke-width="1.5"/>
  <rect clip-path="url(#cc)" x="0" y="0" width="760" height="50" fill="url(#hg)"/>

  <!-- 3D icon in header -->
  <g transform="translate(20,14)">
    <rect x="3" y="4" width="10" height="8" rx="1" fill="none" stroke="#58a6ff" stroke-width="1.5"/>
    <polygon points="0,4 3,4 3,12 0,12" fill="#58a6ff" opacity="0.6"/>
    <polygon points="0,4 3,2 13,2 10,4" fill="#58a6ff" opacity="0.9"/>
  </g>

  <!-- Header -->
  <text x="42" y="26" font-family="Arial,sans-serif" font-size="14" font-weight="bold" fill="#e6edf3">3D Contribution Graph</text>
  <text x="42" y="41" font-family="Arial,sans-serif" font-size="10" fill="#8b949e">134 contributions • isometric bars</text>

  <!-- Divider -->
  <line x1="20" y1="52" x2="740" y2="52" stroke="#30363d" stroke-width="1" opacity="0.6"/>

  <!-- Bars -->
  <rect x="190.5" y="103.5" width="7" height="25"
        fill="#58a6ff66" opacity="0.9"/>
  <polygon points="190.5,103.5 197.5,103.5 201.5,99.5 194.5,99.5"
        fill="#58a6ff66" opacity="1"/>
  <polygon points="197.5,103.5 197.5,128.5 201.5,124.5 201.5,99.5"
        fill="#58a6ff66" opacity="0.5"/>
  <rect x="223.5" y="125.69999999999999" width="7" height="10"
        fill="#58a6ff33" opacity="0.9"/>
  <polygon points="223.5,125.69999999999999 230.5,125.69999999999999 234.5,121.69999999999999 227.5,121.69999999999999"
        fill="#58a6ff33" opacity="1"/>
  <polygon points="230.5,125.69999999999999 230.5,135.7 234.5,131.7 234.5,121.69999999999999"
        fill="#58a6ff33" opacity="0.5"/>
  <rect x="240" y="84.5" width="7" height="35"
        fill="#58a6ff99" opacity="0.9"/>
  <polygon points="240,84.5 247,84.5 251,80.5 244,80.5"
        fill="#58a6ff99" opacity="1"/>
  <polygon points="247,84.5 247,119.5 251,115.5 251,80.5"
        fill="#58a6ff99" opacity="0.5"/>
  <rect x="289.5" y="120.19999999999999" width="7" height="20"
        fill="#58a6ff66" opacity="0.9"/>
  <polygon points="289.5,120.19999999999999 296.5,120.19999999999999 300.5,116.19999999999999 293.5,116.19999999999999"
        fill="#58a6ff66" opacity="1"/>
  <polygon points="296.5,120.19999999999999 296.5,140.2 300.5,136.2 300.5,116.19999999999999"
        fill="#58a6ff66" opacity="0.5"/>
  <rect x="284" y="120.8" width="7" height="5"
        fill="#58a6ff33" opacity="0.9"/>
  <polygon points="284,120.8 291,120.8 295,116.8 288,116.8"
        fill="#58a6ff33" opacity="1"/>
  <polygon points="291,120.8 291,125.8 295,121.8 295,116.8"
        fill="#58a6ff33" opacity="0.5"/>
  <rect x="350" y="125.19999999999999" width="7" height="15"
        fill="#58a6ff66" opacity="0.9"/>
  <polygon points="350,125.19999999999999 357,125.19999999999999 361,121.19999999999999 354,121.19999999999999"
        fill="#58a6ff66" opacity="1"/>
  <polygon points="357,125.19999999999999 357,140.2 361,136.2 361,121.19999999999999"
        fill="#58a6ff66" opacity="0.5"/>
  <rect x="350" y="120.30000000000001" width="7" height="10"
        fill="#58a6ff33" opacity="0.9"/>
  <polygon points="350,120.30000000000001 357,120.30000000000001 361,116.30000000000001 354,116.30000000000001"
        fill="#58a6ff33" opacity="1"/>
  <polygon points="357,120.30000000000001 357,130.3 361,126.30000000000001 361,116.30000000000001"
        fill="#58a6ff33" opacity="0.5"/>
  <rect x="355.5" y="124.80000000000001" width="7" height="10"
        fill="#58a6ff33" opacity="0.9"/>
  <polygon points="355.5,124.80000000000001 362.5,124.80000000000001 366.5,120.80000000000001 359.5,120.80000000000001"
        fill="#58a6ff33" opacity="1"/>
  <polygon points="362.5,124.80000000000001 362.5,134.8 366.5,130.8 366.5,120.80000000000001"
        fill="#58a6ff33" opacity="0.5"/>
  <rect x="361" y="119.30000000000001" width="7" height="20"
        fill="#58a6ff66" opacity="0.9"/>
  <polygon points="361,119.30000000000001 368,119.30000000000001 372,115.30000000000001 365,115.30000000000001"
        fill="#58a6ff66" opacity="1"/>
  <polygon points="368,119.30000000000001 368,139.3 372,135.3 372,115.30000000000001"
        fill="#58a6ff66" opacity="0.5"/>
  <rect x="339" y="106.4" width="7" height="5"
        fill="#58a6ff33" opacity="0.9"/>
  <polygon points="339,106.4 346,106.4 350,102.4 343,102.4"
        fill="#58a6ff33" opacity="1"/>
  <polygon points="346,106.4 346,111.4 350,107.4 350,102.4"
        fill="#58a6ff33" opacity="0.5"/>
  <rect x="366.5" y="94.1" width="7" height="20"
        fill="#58a6ff66" opacity="0.9"/>
  <polygon points="366.5,94.1 373.5,94.1 377.5,90.1 370.5,90.1"
        fill="#58a6ff66" opacity="1"/>
  <polygon points="373.5,94.1 373.5,114.1 377.5,110.1 377.5,90.1"
        fill="#58a6ff66" opacity="0.5"/>
  <rect x="377.5" y="73.1" width="7" height="50"
        fill="#58a6ffbb" opacity="0.9"/>
  <polygon points="377.5,73.1 384.5,73.1 388.5,69.1 381.5,69.1"
        fill="#58a6ffbb" opacity="1"/>
  <polygon points="384.5,73.1 384.5,123.1 388.5,119.1 388.5,69.1"
        fill="#58a6ffbb" opacity="0.5"/>
  <rect x="377.5" y="108.2" width="7" height="5"
        fill="#58a6ff33" opacity="0.9"/>
  <polygon points="377.5,108.2 384.5,108.2 388.5,104.2 381.5,104.2"
        fill="#58a6ff33" opacity="1"/>
  <polygon points="384.5,108.2 384.5,113.2 388.5,109.2 388.5,104.2"
        fill="#58a6ff33" opacity="0.5"/>
  <rect x="383" y="112.7" width="7" height="5"
        fill="#58a6ff33" opacity="0.9"/>
  <polygon points="383,112.7 390,112.7 394,108.7 387,108.7"
        fill="#58a6ff33" opacity="1"/>
  <polygon points="390,112.7 390,117.7 394,113.7 394,108.7"
        fill="#58a6ff33" opacity="0.5"/>
  <rect x="388.5" y="112.2" width="7" height="10"
        fill="#58a6ff33" opacity="0.9"/>
  <polygon points="388.5,112.2 395.5,112.2 399.5,108.2 392.5,108.2"
        fill="#58a6ff33" opacity="1"/>
  <polygon points="395.5,112.2 395.5,122.2 399.5,118.2 399.5,108.2"
        fill="#58a6ff33" opacity="0.5"/>
  <rect x="394" y="106.7" width="7" height="20"
        fill="#58a6ff66" opacity="0.9"/>
  <polygon points="394,106.7 401,106.7 405,102.7 398,102.7"
        fill="#58a6ff66" opacity="1"/>
  <polygon points="401,106.7 401,126.7 405,122.7 405,102.7"
        fill="#58a6ff66" opacity="0.5"/>
  <rect x="399.5" y="126.19999999999999" width="7" height="5"
        fill="#58a6ff33" opacity="0.9"/>
  <polygon points="399.5,126.19999999999999 406.5,126.19999999999999 410.5,122.19999999999999 403.5,122.19999999999999"
        fill="#58a6ff33" opacity="1"/>
  <polygon points="406.5,126.19999999999999 406.5,131.2 410.5,127.19999999999999 410.5,122.19999999999999"
        fill="#58a6ff33" opacity="0.5"/>
  <rect x="405" y="130.7" width="7" height="5"
        fill="#58a6ff33" opacity="0.9"/>
  <polygon points="405,130.7 412,130.7 416,126.69999999999999 409,126.69999999999999"
        fill="#58a6ff33" opacity="1"/>
  <polygon points="412,130.7 412,135.7 416,131.7 416,126.69999999999999"
        fill="#58a6ff33" opacity="0.5"/>
  <rect x="405" y="120.8" width="7" height="5"
        fill="#58a6ff33" opacity="0.9"/>
  <polygon points="405,120.8 412,120.8 416,116.8 409,116.8"
        fill="#58a6ff33" opacity="1"/>
  <polygon points="412,120.8 412,125.8 416,121.8 416,116.8"
        fill="#58a6ff33" opacity="0.5"/>
  <rect x="410.5" y="105.30000000000001" width="7" height="25"
        fill="#58a6ff66" opacity="0.9"/>
  <polygon points="410.5,105.30000000000001 417.5,105.30000000000001 421.5,101.30000000000001 414.5,101.30000000000001"
        fill="#58a6ff66" opacity="1"/>
  <polygon points="417.5,105.30000000000001 417.5,130.3 421.5,126.30000000000001 421.5,101.30000000000001"
        fill="#58a6ff66" opacity="0.5"/>
  <rect x="416" y="124.80000000000001" width="7" height="10"
        fill="#58a6ff33" opacity="0.9"/>
  <polygon points="416,124.80000000000001 423,124.80000000000001 427,120.80000000000001 420,120.80000000000001"
        fill="#58a6ff33" opacity="1"/>
  <polygon points="423,124.80000000000001 423,134.8 427,130.8 427,120.80000000000001"
        fill="#58a6ff33" opacity="0.5"/>
  <rect x="394" y="86.9" width="7" height="20"
        fill="#58a6ff66" opacity="0.9"/>
  <polygon points="394,86.9 401,86.9 405,82.9 398,82.9"
        fill="#58a6ff66" opacity="1"/>
  <polygon points="401,86.9 401,106.9 405,102.9 405,82.9"
        fill="#58a6ff66" opacity="0.5"/>
  <rect x="405" y="100.9" width="7" height="15"
        fill="#58a6ff66" opacity="0.9"/>
  <polygon points="405,100.9 412,100.9 416,96.9 409,96.9"
        fill="#58a6ff66" opacity="1"/>
  <polygon points="412,100.9 412,115.9 416,111.9 416,96.9"
        fill="#58a6ff66" opacity="0.5"/>
  <rect x="410.5" y="110.4" width="7" height="10"
        fill="#58a6ff33" opacity="0.9"/>
  <polygon points="410.5,110.4 417.5,110.4 421.5,106.4 414.5,106.4"
        fill="#58a6ff33" opacity="1"/>
  <polygon points="417.5,110.4 417.5,120.4 421.5,116.4 421.5,106.4"
        fill="#58a6ff33" opacity="0.5"/>
  <rect x="421.5" y="99.4" width="7" height="30"
        fill="#58a6ff99" opacity="0.9"/>
  <polygon points="421.5,99.4 428.5,99.4 432.5,95.4 425.5,95.4"
        fill="#58a6ff99" opacity="1"/>
  <polygon points="428.5,99.4 428.5,129.4 432.5,125.4 432.5,95.4"
        fill="#58a6ff99" opacity="0.5"/>
  <rect x="427" y="128.9" width="7" height="5"
        fill="#58a6ff33" opacity="0.9"/>
  <polygon points="427,128.9 434,128.9 438,124.9 431,124.9"
        fill="#58a6ff33" opacity="1"/>
  <polygon points="434,128.9 434,133.9 438,129.9 438,124.9"
        fill="#58a6ff33" opacity="0.5"/>
  <rect x="405" y="81" width="7" height="25"
        fill="#58a6ff66" opacity="0.9"/>
  <polygon points="405,81 412,81 416,77 409,77"
        fill="#58a6ff66" opacity="1"/>
  <polygon points="412,81 412,106 416,102 416,77"
        fill="#58a6ff66" opacity="0.5"/>
  <rect x="432.5" y="113.6" width="7" height="5"
        fill="#58a6ff33" opacity="0.9"/>
  <polygon points="432.5,113.6 439.5,113.6 443.5,109.6 436.5,109.6"
        fill="#58a6ff33" opacity="1"/>
  <polygon points="439.5,113.6 439.5,118.6 443.5,114.6 443.5,109.6"
        fill="#58a6ff33" opacity="0.5"/>
  <rect x="438" y="78.1" width="7" height="45"
        fill="#58a6ffbb" opacity="0.9"/>
  <polygon points="438,78.1 445,78.1 449,74.1 442,74.1"
        fill="#58a6ffbb" opacity="1"/>
  <polygon points="445,78.1 445,123.1 449,119.1 449,74.1"
        fill="#58a6ffbb" opacity="0.5"/>
  <rect x="443.5" y="102.6" width="7" height="25"
        fill="#58a6ff66" opacity="0.9"/>
  <polygon points="443.5,102.6 450.5,102.6 454.5,98.6 447.5,98.6"
        fill="#58a6ff66" opacity="1"/>
  <polygon points="450.5,102.6 450.5,127.6 454.5,123.6 454.5,98.6"
        fill="#58a6ff66" opacity="0.5"/>
  <rect x="449" y="82.1" width="7" height="50"
        fill="#58a6ffbb" opacity="0.9"/>
  <polygon points="449,82.1 456,82.1 460,78.1 453,78.1"
        fill="#58a6ffbb" opacity="1"/>
  <polygon points="456,82.1 456,132.1 460,128.1 460,78.1"
        fill="#58a6ffbb" opacity="0.5"/>
  <rect x="427" y="94.19999999999999" width="7" height="10"
        fill="#58a6ff33" opacity="0.9"/>
  <polygon points="427,94.19999999999999 434,94.19999999999999 438,90.19999999999999 431,90.19999999999999"
        fill="#58a6ff33" opacity="1"/>
  <polygon points="434,94.19999999999999 434,104.19999999999999 438,100.19999999999999 438,90.19999999999999"
        fill="#58a6ff33" opacity="0.5"/>
  <rect x="432.5" y="93.69999999999999" width="7" height="15"
        fill="#58a6ff66" opacity="0.9"/>
  <polygon points="432.5,93.69999999999999 439.5,93.69999999999999 443.5,89.69999999999999 436.5,89.69999999999999"
        fill="#58a6ff66" opacity="1"/>
  <polygon points="439.5,93.69999999999999 439.5,108.69999999999999 443.5,104.69999999999999 443.5,89.69999999999999"
        fill="#58a6ff66" opacity="0.5"/>
  <rect x="438" y="108.19999999999999" width="7" height="5"
        fill="#58a6ff33" opacity="0.9"/>
  <polygon points="438,108.19999999999999 445,108.19999999999999 449,104.19999999999999 442,104.19999999999999"
        fill="#58a6ff33" opacity="1"/>
  <polygon points="445,108.19999999999999 445,113.19999999999999 449,109.19999999999999 449,104.19999999999999"
        fill="#58a6ff33" opacity="0.5"/>
  <rect x="443.5" y="112.69999999999999" width="7" height="5"
        fill="#58a6ff33" opacity="0.9"/>
  <polygon points="443.5,112.69999999999999 450.5,112.69999999999999 454.5,108.69999999999999 447.5,108.69999999999999"
        fill="#58a6ff33" opacity="1"/>
  <polygon points="450.5,112.69999999999999 450.5,117.69999999999999 454.5,113.69999999999999 454.5,108.69999999999999"
        fill="#58a6ff33" opacity="0.5"/>
  <rect x="537" y="95.1" width="7" height="10"
        fill="#58a6ff33" opacity="0.9"/>
  <polygon points="537,95.1 544,95.1 548,91.1 541,91.1"
        fill="#58a6ff33" opacity="1"/>
  <polygon points="544,95.1 544,105.1 548,101.1 548,91.1"
        fill="#58a6ff33" opacity="0.5"/>
  <rect x="570" y="72.4" width="7" height="30"
        fill="#58a6ff99" opacity="0.9"/>
  <polygon points="570,72.4 577,72.4 581,68.4 574,68.4"
        fill="#58a6ff99" opacity="1"/>
  <polygon points="577,72.4 577,102.4 581,98.4 581,68.4"
        fill="#58a6ff99" opacity="0.5"/>
  <rect x="575.5" y="91.9" width="7" height="15"
        fill="#58a6ff66" opacity="0.9"/>
  <polygon points="575.5,91.9 582.5,91.9 586.5,87.9 579.5,87.9"
        fill="#58a6ff66" opacity="1"/>
  <polygon points="582.5,91.9 582.5,106.9 586.5,102.9 586.5,87.9"
        fill="#58a6ff66" opacity="0.5"/>
  <rect x="597.5" y="90.19999999999999" width="7" height="5"
        fill="#58a6ff33" opacity="0.9"/>
  <polygon points="597.5,90.19999999999999 604.5,90.19999999999999 608.5,86.19999999999999 601.5,86.19999999999999"
        fill="#58a6ff33" opacity="1"/>
  <polygon points="604.5,90.19999999999999 604.5,95.19999999999999 608.5,91.19999999999999 608.5,86.19999999999999"
        fill="#58a6ff33" opacity="0.5"/>
  <rect x="614" y="98.69999999999999" width="7" height="10"
        fill="#58a6ff33" opacity="0.9"/>
  <polygon points="614,98.69999999999999 621,98.69999999999999 625,94.69999999999999 618,94.69999999999999"
        fill="#58a6ff33" opacity="1"/>
  <polygon points="621,98.69999999999999 621,108.69999999999999 625,104.69999999999999 625,94.69999999999999"
        fill="#58a6ff33" opacity="0.5"/>
  <rect x="619.5" y="93.19999999999999" width="7" height="20"
        fill="#58a6ff66" opacity="0.9"/>
  <polygon points="619.5,93.19999999999999 626.5,93.19999999999999 630.5,89.19999999999999 623.5,89.19999999999999"
        fill="#58a6ff66" opacity="1"/>
  <polygon points="626.5,93.19999999999999 626.5,113.19999999999999 630.5,109.19999999999999 630.5,89.19999999999999"
        fill="#58a6ff66" opacity="0.5"/>

  <!-- Baseline -->
  <line x1="20" y1="138.5" x2="740" y2="138.5" stroke="#30363d" stroke-width="1" opacity="0.5"/>

</svg>