<svg width="803" height="193" viewBox="0 0 803 193" xmlns="http://www.w3.org/2000/svg">
  <defs>
    <linearGradient id="hg" x1="0%" y1="0%" x2="100%" y2="0%">
      <stop offset="0%" style="stop-color:#58a6ff;stop-opacity:0.15"/>
      <stop offset="100%" style="stop-color:#0d1117;stop-opacity:0"/>
    </linearGradient>
    <clipPath id="cc"><rect width="803" height="193" rx="12"/></clipPath>
  </defs>

  <!-- Card -->
  <rect width="803" height="193" rx="12" fill="#0d1117" stroke="#30363d" stroke-width="1.5"/>
  <rect clip-path="url(#cc)" x="0" y="0" width="803" height="50" fill="url(#hg)"/>

  <!-- Contribution icon -->
  <g transform="translate(24,14)">
    <rect x="0" y="0" width="16" height="16" rx="3" fill="none" stroke="#58a6ff" stroke-width="1.5"/>
    <rect x="2" y="2" width="5" height="5" rx="1" fill="#58a6ff" opacity="0.8"/>
    <rect x="9" y="2" width="5" height="5" rx="1" fill="#58a6ff" opacity="0.4"/>
    <rect x="2" y="9" width="5" height="5" rx="1" fill="#58a6ff" opacity="0.4"/>
    <rect x="9" y="9" width="5" height="5" rx="1" fill="#58a6ff"/>
  </g>

  <!-- Header -->
  <text x="46" y="26" font-family="Arial,sans-serif" font-size="14" font-weight="bold" fill="#e6edf3">Contribution Graph</text>
  <text x="46" y="41" font-family="Arial,sans-serif" font-size="10" fill="#8b949e">134 contributions • past year</text>

  <!-- Divider -->
  <line x1="24" y1="52" x2="779" y2="52" stroke="#30363d" stroke-width="1" opacity="0.6"/>

  <!-- Day labels -->
  <text x="20" y="79" font-family="Arial,sans-serif"
      font-size="9" fill="#8b949e" text-anchor="end">Mon</text><text x="20" y="107" font-family="Arial,sans-serif"
      font-size="9" fill="#8b949e" text-anchor="end">Wed</text><text x="20" y="135" font-family="Arial,sans-serif"
      font-size="9" fill="#8b949e" text-anchor="end">Fri</text>

  <!-- Squares -->
  <rect x="24" y="56" width="11" height="11" rx="2"
        fill="#0d1117" stroke="#30363d" stroke-width="0.5" opacity="0.5"/><rect x="24" y="70" width="11" height="11" rx="2"
        fill="#0d1117" stroke="#30363d" stroke-width="0.5" opacity="0.5"/><rect x="24" y="84" width="11" height="11" rx="2"
        fill="#0d1117" stroke="#30363d" stroke-width="0.5" opacity="0.5"/><rect x="24" y="98" width="11" height="11" rx="2"
        fill="#0d1117" stroke="#30363d" stroke-width="0.5" opacity="0.5"/><rect x="24" y="112" width="11" height="11" rx="2"
        fill="#0d1117" stroke="#30363d" stroke-width="0.5" opacity="0.5"/><rect x="24" y="126" width="11" height="11" rx="2"
        fill="#0d1117" stroke="#30363d" stroke-width="0.5" opacity="0.5"/><rect x="24" y="140" width="11" height="11" rx="2"
        fill="#0d1117" stroke="#30363d" stroke-width="0.5" opacity="0.5"/><rect x="38" y="56" width="11" height="11" rx="2"
        fill="#0d1117" stroke="#30363d" stroke-width="0.5" opacity="0.5"/><rect x="38" y="70" width="11" height="11" rx="2"
        fill="#0d1117" stroke="#30363d" stroke-width="0.5" opacity="0.5"/><rect x="38" y="84" width="11" height="11" rx="2"
        fill="#0d1117" stroke="#30363d" stroke-width="0.5" opacity="0.5"/><rect x="38" y="98" width="11" height="11" rx="2"
        fill="#0d1117" stroke="#30363d" stroke-width="0.5" opacity="0.5"/><rect x="38" y="112" width="11" height="11" rx="2"
        fill="#0d1117" stroke="#30363d" stroke-width="0.5" opacity="0.5"/><rect x="38" y="126" width="11" height="11" rx="2"
        fill="#0d1117" stroke="#30363d" stroke-width="0.5" opacity="0.5"/><rect x="38" y="140" width="11" height="11" rx="2"
        fill="#0d1117" stroke="#30363d" stroke-width="0.5" opacity="0.5"/><rect x="52" y="56" width="11" height="11" rx="2"
        fill="#0d1117" stroke="#30363d" stroke-width="0.5" opacity="0.5"/><rect x="52" y="70" width="11" height="11" rx="2"
        fill="#0d1117" stroke="#30363d" stroke-width="0.5" opacity="0.5"/><rect x="52" y="84" width="11" height="11" rx="2"
        fill="#0d1117" stroke="#30363d" stroke-width="0.5" opacity="0.5"/><rect x="52" y="98" width="11" height="11" rx="2"
        fill="#0d1117" stroke="#30363d" stroke-width="0.5" opacity="0.5"/><rect x="52" y="112" width="11" height="11" rx="2"
        fill="#0d1117" stroke="#30363d" stroke-width="0.5" opacity="0.5"/><rect x="52" y="126" width="11" height="11" rx="2"
        fill="#0d1117" stroke="#30363d" stroke-width="0.5" opacity="0.5"/><rect x="52" y="140" width="11" height="11" rx="2"
        fill="#0d1117" stroke="#30363d" stroke-width="0.5" opacity="0.5"/><rect x="66" y="56" width="11" height="11" rx="2"
        fill="#0d1117" stroke="#30363d" stroke-width="0.5" opacity="0.5"/><rect x="66" y="70" width="11" height="11" rx="2"
        fill="#0d1117" stroke="#30363d" stroke-width="0.5" opacity="0.5"/><rect x="66" y="84" width="11" height="11" rx="2"
        fill="#0d1117" stroke="#30363d" stroke-width="0.5" opacity="0.5"/><rect x="66" y="98" width="11" height="11" rx="2"
        fill="#0d1117" stroke="#30363d" stroke-width="0.5" opacity="0.5"/><rect x="66" y="112" width="11" height="11" rx="2"
        fill="#0d1117" stroke="#30363d" stroke-width="0.5" opacity="0.5"/><rect x="66" y="126" width="11" height="11" rx="2"
        fill="#0d1117" stroke="#30363d" stroke-width="0.5" opacity="0.5"/><rect x="66" y="140" width="11" height="11" rx="2"
        fill="#0d1117" stroke="#30363d" stroke-width="0.5" opacity="0.5"/><rect x="80" y="56" width="11" height="11" rx="2"
        fill="#0d1117" stroke="#30363d" stroke-width="0.5" opacity="0.5"/><rect x="80" y="70" width="11" height="11" rx="2"
        fill="#0d1117" stroke="#30363d" stroke-width="0.5" opacity="0.5"/><rect x="80" y="84" width="11" height="11" rx="2"
        fill="#0d1117" stroke="#30363d" stroke-width="0.5" opacity="0.5"/><rect x="80" y="98" width="11" height="11" rx="2"
        fill="#0d1117" stroke="#30363d" stroke-width="0.5" opacity="0.5"/><rect x="80" y="112" width="11" height="11" rx="2"
        fill="#0d1117" stroke="#30363d" stroke-width="0.5" opacity="0.5"/><rect x="80" y="126" width="11" height="11" rx="2"
        fill="#0d1117" stroke="#30363d" stroke-width="0.5" opacity="0.5"/><rect x="80" y="140" width="11" height="11" rx="2"
        fill="#0d1117" stroke="#30363d" stroke-width="0.5" opacity="0.5"/><rect x="94" y="56" width="11" height="11" rx="2"
        fill="#0d1117" stroke="#30363d" stroke-width="0.5" opacity="0.5"/><rect x="94" y="70" width="11" height="11" rx="2"
        fill="#0d1117" stroke="#30363d" stroke-width="0.5" opacity="0.5"/><rect x="94" y="84" width="11" height="11" rx="2"
        fill="#0d1117" stroke="#30363d" stroke-width="0.5" opacity="0.5"/><rect x="94" y="98" width="11" height="11" rx="2"
        fill="#0d1117" stroke="#30363d" stroke-width="0.5" opacity="0.5"/><rect x="94" y="112" width="11" height="11" rx="2"
        fill="#0d1117" stroke="#30363d" stroke-width="0.5" opacity="0.5"/><rect x="94" y="126" width="11" height="11" rx="2"
        fill="#0d1117" stroke="#30363d" stroke-width="0.5" opacity="0.5"/><rect x="94" y="140" width="11" height="11" rx="2"
        fill="#0d1117" stroke="#30363d" stroke-width="0.5" opacity="0.5"/><rect x="108" y="56" width="11" height="11" rx="2"
        fill="#0d1117" stroke="#30363d" stroke-width="0.5" opacity="0.5"/><rect x="108" y="70" width="11" height="11" rx="2"
        fill="#0d1117" stroke="#30363d" stroke-width="0.5" opacity="0.5"/><rect x="108" y="84" width="11" height="11" rx="2"
        fill="#0d1117" stroke="#30363d" stroke-width="0.5" opacity="0.5"/><rect x="108" y="98" width="11" height="11" rx="2"
        fill="#0d1117" stroke="#30363d" stroke-width="0.5" opacity="0.5"/><rect x="108" y="112" width="11" height="11" rx="2"
        fill="#0d1117" stroke="#30363d" stroke-width="0.5" opacity="0.5"/><rect x="108" y="126" width="11" height="11" rx="2"
        fill="#0d1117" stroke="#30363d" stroke-width="0.5" opacity="0.5"/><rect x="108" y="140" width="11" height="11" rx="2"
        fill="#0d1117" stroke="#30363d" stroke-width="0.5" opacity="0.5"/><rect x="122" y="56" width="11" height="11" rx="2"
        fill="#0d1117" stroke="#30363d" stroke-width="0.5" opacity="0.5"/><rect x="122" y="70" width="11" height="11" rx="2"
        fill="#0d1117" stroke="#30363d" stroke-width="0.5" opacity="0.5"/><rect x="122" y="84" width="11" height="11" rx="2"
        fill="#0d1117" stroke="#30363d" stroke-width="0.5" opacity="0.5"/><rect x="122" y="98" width="11" height="11" rx="2"
        fill="#0d1117" stroke="#30363d" stroke-width="0.5" opacity="0.5"/><rect x="122" y="112" width="11" height="11" rx="2"
        fill="#0d1117" stroke="#30363d" stroke-width="0.5" opacity="0.5"/><rect x="122" y="126" width="11" height="11" rx="2"
        fill="#0d1117" stroke="#30363d" stroke-width="0.5" opacity="0.5"/><rect x="122" y="140" width="11" height="11" rx="2"
        fill="#0d1117" stroke="#30363d" stroke-width="0.5" opacity="0.5"/><rect x="136" y="56" width="11" height="11" rx="2"
        fill="#0d1117" stroke="#30363d" stroke-width="0.5" opacity="0.5"/><rect x="136" y="70" width="11" height="11" rx="2"
        fill="#0d1117" stroke="#30363d" stroke-width="0.5" opacity="0.5"/><rect x="136" y="84" width="11" height="11" rx="2"
        fill="#0d1117" stroke="#30363d" stroke-width="0.5" opacity="0.5"/><rect x="136" y="98" width="11" height="11" rx="2"
        fill="#0d1117" stroke="#30363d" stroke-width="0.5" opacity="0.5"/><rect x="136" y="112" width="11" height="11" rx="2"
        fill="#0d1117" stroke="#30363d" stroke-width="0.5" opacity="0.5"/><rect x="136" y="126" width="11" height="11" rx="2"
        fill="#0d1117" stroke="#30363d" stroke-width="0.5" opacity="0.5"/><rect x="136" y="140" width="11" height="11" rx="2"
        fill="#0d1117" stroke="#30363d" stroke-width="0.5" opacity="0.5"/><rect x="150" y="56" width="11" height="11" rx="2"
        fill="#0d1117" stroke="#30363d" stroke-width="0.5" opacity="0.5"/><rect x="150" y="70" width="11" height="11" rx="2"
        fill="#0d1117" stroke="#30363d" stroke-width="0.5" opacity="0.5"/><rect x="150" y="84" width="11" height="11" rx="2"
        fill="#0d1117" stroke="#30363d" stroke-width="0.5" opacity="0.5"/><rect x="150" y="98" width="11" height="11" rx="2"
        fill="#0d1117" stroke="#30363d" stroke-width="0.5" opacity="0.5"/><rect x="150" y="112" width="11" height="11" rx="2"
        fill="#0d1117" stroke="#30363d" stroke-width="0.5" opacity="0.5"/><rect x="150" y="126" width="11" height="11" rx="2"
        fill="#0d1117" stroke="#30363d" stroke-width="0.5" opacity="0.5"/><rect x="150" y="140" width="11" height="11" rx="2"
        fill="#0d1117" stroke="#30363d" stroke-width="0.5" opacity="0.5"/><rect x="164" y="56" width="11" height="11" rx="2"
        fill="#0d1117" stroke="#30363d" stroke-width="0.5" opacity="0.5"/><rect x="164" y="70" width="11" height="11" rx="2"
        fill="#0d1117" stroke="#30363d" stroke-width="0.5" opacity="0.5"/><rect x="164" y="84" width="11" height="11" rx="2"
        fill="#0d1117" stroke="#30363d" stroke-width="0.5" opacity="0.5"/><rect x="164" y="98" width="11" height="11" rx="2"
        fill="#0d1117" stroke="#30363d" stroke-width="0.5" opacity="0.5"/><rect x="164" y="112" width="11" height="11" rx="2"
        fill="#0d1117" stroke="#30363d" stroke-width="0.5" opacity="0.5"/><rect x="164" y="126" width="11" height="11" rx="2"
        fill="#0d1117" stroke="#30363d" stroke-width="0.5" opacity="0.5"/><rect x="164" y="140" width="11" height="11" rx="2"
        fill="#0d1117" stroke="#30363d" stroke-width="0.5" opacity="0.5"/><rect x="178" y="56" width="11" height="11" rx="2"
        fill="#0d1117" stroke="#30363d" stroke-width="0.5" opacity="0.5"/><rect x="178" y="70" width="11" height="11" rx="2"
        fill="#0d1117" stroke="#30363d" stroke-width="0.5" opacity="0.5"/><rect x="178" y="84" width="11" height="11" rx="2"
        fill="#0d1117" stroke="#30363d" stroke-width="0.5" opacity="0.5"/><rect x="178" y="98" width="11" height="11" rx="2"
        fill="#0d1117" stroke="#30363d" stroke-width="0.5" opacity="0.5"/><rect x="178" y="112" width="11" height="11" rx="2"
        fill="#0d1117" stroke="#30363d" stroke-width="0.5" opacity="0.5"/><rect x="178" y="126" width="11" height="11" rx="2"
        fill="#0d1117" stroke="#30363d" stroke-width="0.5" opacity="0.5"/><rect x="178" y="140" width="11" height="11" rx="2"
        fill="#0d1117" stroke="#30363d" stroke-width="0.5" opacity="0.5"/><rect x="192" y="56" width="11" height="11" rx="2"
        fill="#0d1117" stroke="#30363d" stroke-width="0.5" opacity="0.5"/><rect x="192" y="70" width="11" height="11" rx="2"
        fill="#0d1117" stroke="#30363d" stroke-width="0.5" opacity="0.5"/><rect x="192" y="84" width="11" height="11" rx="2"
        fill="#0d1117" stroke="#30363d" stroke-width="0.5" opacity="0.5"/><rect x="192" y="98" width="11" height="11" rx="2"
        fill="#0d1117" stroke="#30363d" stroke-width="0.5" opacity="0.5"/><rect x="192" y="112" width="11" height="11" rx="2"
        fill="#0d1117" stroke="#30363d" stroke-width="0.5" opacity="0.5"/><rect x="192" y="126" width="11" height="11" rx="2"
        fill="#0d1117" stroke="#30363d" stroke-width="0.5" opacity="0.5"/><rect x="192" y="140" width="11" height="11" rx="2"
        fill="#0d1117" stroke="#30363d" stroke-width="0.5" opacity="0.5"/><rect x="206" y="56" width="11" height="11" rx="2"
        fill="#0d1117" stroke="#30363d" stroke-width="0.5" opacity="0.5"/><rect x="206" y="70" width="11" height="11" rx="2"
        fill="#0d1117" stroke="#30363d" stroke-width="0.5" opacity="0.5"/><rect x="206" y="84" width="11" height="11" rx="2"
        fill="#0d1117" stroke="#30363d" stroke-width="0.5" opacity="0.5"/><rect x="206" y="98" width="11" height="11" rx="2"
        fill="#0d1117" stroke="#30363d" stroke-width="0.5" opacity="0.5"/><rect x="206" y="112" width="11" height="11" rx="2"
        fill="#0d1117" stroke="#30363d" stroke-width="0.5" opacity="0.5"/><rect x="206" y="126" width="11" height="11" rx="2"
        fill="#0d1117" stroke="#30363d" stroke-width="0.5" opacity="0.5"/><rect x="206" y="140" width="11" height="11" rx="2"
        fill="#0d1117" stroke="#30363d" stroke-width="0.5" opacity="0.5"/><rect x="220" y="56" width="11" height="11" rx="2"
        fill="#0d1117" stroke="#30363d" stroke-width="0.5" opacity="0.5"/><rect x="220" y="70" width="11" height="11" rx="2"
        fill="#0d1117" stroke="#30363d" stroke-width="0.5" opacity="0.5"/><rect x="220" y="84" width="11" height="11" rx="2"
        fill="#0d1117" stroke="#30363d" stroke-width="0.5" opacity="0.5"/><rect x="220" y="98" width="11" height="11" rx="2"
        fill="#0d1117" stroke="#30363d" stroke-width="0.5" opacity="0.5"/><rect x="220" y="112" width="11" height="11" rx="2"
        fill="#0d1117" stroke="#30363d" stroke-width="0.5" opacity="0.5"/><rect x="220" y="126" width="11" height="11" rx="2"
        fill="#0d1117" stroke="#30363d" stroke-width="0.5" opacity="0.5"/><rect x="220" y="140" width="11" height="11" rx="2"
        fill="#0d1117" stroke="#30363d" stroke-width="0.5" opacity="0.5"/><rect x="234" y="56" width="11" height="11" rx="2"
        fill="#0d1117" stroke="#30363d" stroke-width="0.5" opacity="0.5"/><rect x="234" y="70" width="11" height="11" rx="2"
        fill="#58a6ff66" stroke="#30363d" stroke-width="0.5" opacity="1"/><rect x="234" y="84" width="11" height="11" rx="2"
        fill="#0d1117" stroke="#30363d" stroke-width="0.5" opacity="0.5"/><rect x="234" y="98" width="11" height="11" rx="2"
        fill="#0d1117" stroke="#30363d" stroke-width="0.5" opacity="0.5"/><rect x="234" y="112" width="11" height="11" rx="2"
        fill="#0d1117" stroke="#30363d" stroke-width="0.5" opacity="0.5"/><rect x="234" y="126" width="11" height="11" rx="2"
        fill="#0d1117" stroke="#30363d" stroke-width="0.5" opacity="0.5"/><rect x="234" y="140" width="11" height="11" rx="2"
        fill="#0d1117" stroke="#30363d" stroke-width="0.5" opacity="0.5"/><rect x="248" y="56" width="11" height="11" rx="2"
        fill="#0d1117" stroke="#30363d" stroke-width="0.5" opacity="0.5"/><rect x="248" y="70" width="11" height="11" rx="2"
        fill="#0d1117" stroke="#30363d" stroke-width="0.5" opacity="0.5"/><rect x="248" y="84" width="11" height="11" rx="2"
        fill="#0d1117" stroke="#30363d" stroke-width="0.5" opacity="0.5"/><rect x="248" y="98" width="11" height="11" rx="2"
        fill="#0d1117" stroke="#30363d" stroke-width="0.5" opacity="0.5"/><rect x="248" y="112" width="11" height="11" rx="2"
        fill="#0d1117" stroke="#30363d" stroke-width="0.5" opacity="0.5"/><rect x="248" y="126" width="11" height="11" rx="2"
        fill="#0d1117" stroke="#30363d" stroke-width="0.5" opacity="0.5"/><rect x="248" y="140" width="11" height="11" rx="2"
        fill="#0d1117" stroke="#30363d" stroke-width="0.5" opacity="0.5"/><rect x="262" y="56" width="11" height="11" rx="2"
        fill="#0d1117" stroke="#30363d" stroke-width="0.5" opacity="0.5"/><rect x="262" y="70" width="11" height="11" rx="2"
        fill="#0d1117" stroke="#30363d" stroke-width="0.5" opacity="0.5"/><rect x="262" y="84" width="11" height="11" rx="2"
        fill="#0d1117" stroke="#30363d" stroke-width="0.5" opacity="0.5"/><rect x="262" y="98" width="11" height="11" rx="2"
        fill="#58a6ff33" stroke="#30363d" stroke-width="0.5" opacity="1"/><rect x="262" y="112" width="11" height="11" rx="2"
        fill="#0d1117" stroke="#30363d" stroke-width="0.5" opacity="0.5"/><rect x="262" y="126" width="11" height="11" rx="2"
        fill="#0d1117" stroke="#30363d" stroke-width="0.5" opacity="0.5"/><rect x="262" y="140" width="11" height="11" rx="2"
        fill="#0d1117" stroke="#30363d" stroke-width="0.5" opacity="0.5"/><rect x="276" y="56" width="11" height="11" rx="2"
        fill="#0d1117" stroke="#30363d" stroke-width="0.5" opacity="0.5"/><rect x="276" y="70" width="11" height="11" rx="2"
        fill="#0d1117" stroke="#30363d" stroke-width="0.5" opacity="0.5"/><rect x="276" y="84" width="11" height="11" rx="2"
        fill="#0d1117" stroke="#30363d" stroke-width="0.5" opacity="0.5"/><rect x="276" y="98" width="11" height="11" rx="2"
        fill="#0d1117" stroke="#30363d" stroke-width="0.5" opacity="0.5"/><rect x="276" y="112" width="11" height="11" rx="2"
        fill="#0d1117" stroke="#30363d" stroke-width="0.5" opacity="0.5"/><rect x="276" y="126" width="11" height="11" rx="2"
        fill="#0d1117" stroke="#30363d" stroke-width="0.5" opacity="0.5"/><rect x="276" y="140" width="11" height="11" rx="2"
        fill="#0d1117" stroke="#30363d" stroke-width="0.5" opacity="0.5"/><rect x="290" y="56" width="11" height="11" rx="2"
        fill="#0d1117" stroke="#30363d" stroke-width="0.5" opacity="0.5"/><rect x="290" y="70" width="11" height="11" rx="2"
        fill="#0d1117" stroke="#30363d" stroke-width="0.5" opacity="0.5"/><rect x="290" y="84" width="11" height="11" rx="2"
        fill="#0d1117" stroke="#30363d" stroke-width="0.5" opacity="0.5"/><rect x="290" y="98" width="11" height="11" rx="2"
        fill="#0d1117" stroke="#30363d" stroke-width="0.5" opacity="0.5"/><rect x="290" y="112" width="11" height="11" rx="2"
        fill="#0d1117" stroke="#30363d" stroke-width="0.5" opacity="0.5"/><rect x="290" y="126" width="11" height="11" rx="2"
        fill="#0d1117" stroke="#30363d" stroke-width="0.5" opacity="0.5"/><rect x="290" y="140" width="11" height="11" rx="2"
        fill="#0d1117" stroke="#30363d" stroke-width="0.5" opacity="0.5"/><rect x="304" y="56" width="11" height="11" rx="2"
        fill="#58a6ffaa" stroke="#30363d" stroke-width="0.5" opacity="1"/><rect x="304" y="70" width="11" height="11" rx="2"
        fill="#0d1117" stroke="#30363d" stroke-width="0.5" opacity="0.5"/><rect x="304" y="84" width="11" height="11" rx="2"
        fill="#0d1117" stroke="#30363d" stroke-width="0.5" opacity="0.5"/><rect x="304" y="98" width="11" height="11" rx="2"
        fill="#0d1117" stroke="#30363d" stroke-width="0.5" opacity="0.5"/><rect x="304" y="112" width="11" height="11" rx="2"
        fill="#0d1117" stroke="#30363d" stroke-width="0.5" opacity="0.5"/><rect x="304" y="126" width="11" height="11" rx="2"
        fill="#0d1117" stroke="#30363d" stroke-width="0.5" opacity="0.5"/><rect x="304" y="140" width="11" height="11" rx="2"
        fill="#0d1117" stroke="#30363d" stroke-width="0.5" opacity="0.5"/><rect x="318" y="56" width="11" height="11" rx="2"
        fill="#0d1117" stroke="#30363d" stroke-width="0.5" opacity="0.5"/><rect x="318" y="70" width="11" height="11" rx="2"
        fill="#0d1117" stroke="#30363d" stroke-width="0.5" opacity="0.5"/><rect x="318" y="84" width="11" height="11" rx="2"
        fill="#0d1117" stroke="#30363d" stroke-width="0.5" opacity="0.5"/><rect x="318" y="98" width="11" height="11" rx="2"
        fill="#0d1117" stroke="#30363d" stroke-width="0.5" opacity="0.5"/><rect x="318" y="112" width="11" height="11" rx="2"
        fill="#0d1117" stroke="#30363d" stroke-width="0.5" opacity="0.5"/><rect x="318" y="126" width="11" height="11" rx="2"
        fill="#0d1117" stroke="#30363d" stroke-width="0.5" opacity="0.5"/><rect x="318" y="140" width="11" height="11" rx="2"
        fill="#0d1117" stroke="#30363d" stroke-width="0.5" opacity="0.5"/><rect x="332" y="56" width="11" height="11" rx="2"
        fill="#0d1117" stroke="#30363d" stroke-width="0.5" opacity="0.5"/><rect x="332" y="70" width="11" height="11" rx="2"
        fill="#0d1117" stroke="#30363d" stroke-width="0.5" opacity="0.5"/><rect x="332" y="84" width="11" height="11" rx="2"
        fill="#0d1117" stroke="#30363d" stroke-width="0.5" opacity="0.5"/><rect x="332" y="98" width="11" height="11" rx="2"
        fill="#0d1117" stroke="#30363d" stroke-width="0.5" opacity="0.5"/><rect x="332" y="112" width="11" height="11" rx="2"
        fill="#0d1117" stroke="#30363d" stroke-width="0.5" opacity="0.5"/><rect x="332" y="126" width="11" height="11" rx="2"
        fill="#58a6ff66" stroke="#30363d" stroke-width="0.5" opacity="1"/><rect x="332" y="140" width="11" height="11" rx="2"
        fill="#0d1117" stroke="#30363d" stroke-width="0.5" opacity="0.5"/><rect x="346" y="56" width="11" height="11" rx="2"
        fill="#0d1117" stroke="#30363d" stroke-width="0.5" opacity="0.5"/><rect x="346" y="70" width="11" height="11" rx="2"
        fill="#0d1117" stroke="#30363d" stroke-width="0.5" opacity="0.5"/><rect x="346" y="84" width="11" height="11" rx="2"
        fill="#58a6ff33" stroke="#30363d" stroke-width="0.5" opacity="1"/><rect x="346" y="98" width="11" height="11" rx="2"
        fill="#0d1117" stroke="#30363d" stroke-width="0.5" opacity="0.5"/><rect x="346" y="112" width="11" height="11" rx="2"
        fill="#0d1117" stroke="#30363d" stroke-width="0.5" opacity="0.5"/><rect x="346" y="126" width="11" height="11" rx="2"
        fill="#0d1117" stroke="#30363d" stroke-width="0.5" opacity="0.5"/><rect x="346" y="140" width="11" height="11" rx="2"
        fill="#0d1117" stroke="#30363d" stroke-width="0.5" opacity="0.5"/><rect x="360" y="56" width="11" height="11" rx="2"
        fill="#0d1117" stroke="#30363d" stroke-width="0.5" opacity="0.5"/><rect x="360" y="70" width="11" height="11" rx="2"
        fill="#0d1117" stroke="#30363d" stroke-width="0.5" opacity="0.5"/><rect x="360" y="84" width="11" height="11" rx="2"
        fill="#0d1117" stroke="#30363d" stroke-width="0.5" opacity="0.5"/><rect x="360" y="98" width="11" height="11" rx="2"
        fill="#0d1117" stroke="#30363d" stroke-width="0.5" opacity="0.5"/><rect x="360" y="112" width="11" height="11" rx="2"
        fill="#0d1117" stroke="#30363d" stroke-width="0.5" opacity="0.5"/><rect x="360" y="126" width="11" height="11" rx="2"
        fill="#0d1117" stroke="#30363d" stroke-width="0.5" opacity="0.5"/><rect x="360" y="140" width="11" height="11" rx="2"
        fill="#0d1117" stroke="#30363d" stroke-width="0.5" opacity="0.5"/><rect x="374" y="56" width="11" height="11" rx="2"
        fill="#0d1117" stroke="#30363d" stroke-width="0.5" opacity="0.5"/><rect x="374" y="70" width="11" height="11" rx="2"
        fill="#0d1117" stroke="#30363d" stroke-width="0.5" opacity="0.5"/><rect x="374" y="84" width="11" height="11" rx="2"
        fill="#0d1117" stroke="#30363d" stroke-width="0.5" opacity="0.5"/><rect x="374" y="98" width="11" height="11" rx="2"
        fill="#0d1117" stroke="#30363d" stroke-width="0.5" opacity="0.5"/><rect x="374" y="112" width="11" height="11" rx="2"
        fill="#0d1117" stroke="#30363d" stroke-width="0.5" opacity="0.5"/><rect x="374" y="126" width="11" height="11" rx="2"
        fill="#0d1117" stroke="#30363d" stroke-width="0.5" opacity="0.5"/><rect x="374" y="140" width="11" height="11" rx="2"
        fill="#0d1117" stroke="#30363d" stroke-width="0.5" opacity="0.5"/><rect x="388" y="56" width="11" height="11" rx="2"
        fill="#0d1117" stroke="#30363d" stroke-width="0.5" opacity="0.5"/><rect x="388" y="70" width="11" height="11" rx="2"
        fill="#0d1117" stroke="#30363d" stroke-width="0.5" opacity="0.5"/><rect x="388" y="84" width="11" height="11" rx="2"
        fill="#0d1117" stroke="#30363d" stroke-width="0.5" opacity="0.5"/><rect x="388" y="98" width="11" height="11" rx="2"
        fill="#0d1117" stroke="#30363d" stroke-width="0.5" opacity="0.5"/><rect x="388" y="112" width="11" height="11" rx="2"
        fill="#0d1117" stroke="#30363d" stroke-width="0.5" opacity="0.5"/><rect x="388" y="126" width="11" height="11" rx="2"
        fill="#0d1117" stroke="#30363d" stroke-width="0.5" opacity="0.5"/><rect x="388" y="140" width="11" height="11" rx="2"
        fill="#0d1117" stroke="#30363d" stroke-width="0.5" opacity="0.5"/><rect x="402" y="56" width="11" height="11" rx="2"
        fill="#0d1117" stroke="#30363d" stroke-width="0.5" opacity="0.5"/><rect x="402" y="70" width="11" height="11" rx="2"
        fill="#0d1117" stroke="#30363d" stroke-width="0.5" opacity="0.5"/><rect x="402" y="84" width="11" height="11" rx="2"
        fill="#0d1117" stroke="#30363d" stroke-width="0.5" opacity="0.5"/><rect x="402" y="98" width="11" height="11" rx="2"
        fill="#0d1117" stroke="#30363d" stroke-width="0.5" opacity="0.5"/><rect x="402" y="112" width="11" height="11" rx="2"
        fill="#0d1117" stroke="#30363d" stroke-width="0.5" opacity="0.5"/><rect x="402" y="126" width="11" height="11" rx="2"
        fill="#0d1117" stroke="#30363d" stroke-width="0.5" opacity="0.5"/><rect x="402" y="140" width="11" height="11" rx="2"
        fill="#58a6ff33" stroke="#30363d" stroke-width="0.5" opacity="1"/><rect x="416" y="56" width="11" height="11" rx="2"
        fill="#0d1117" stroke="#30363d" stroke-width="0.5" opacity="0.5"/><rect x="416" y="70" width="11" height="11" rx="2"
        fill="#0d1117" stroke="#30363d" stroke-width="0.5" opacity="0.5"/><rect x="416" y="84" width="11" height="11" rx="2"
        fill="#0d1117" stroke="#30363d" stroke-width="0.5" opacity="0.5"/><rect x="416" y="98" width="11" height="11" rx="2"
        fill="#0d1117" stroke="#30363d" stroke-width="0.5" opacity="0.5"/><rect x="416" y="112" width="11" height="11" rx="2"
        fill="#58a6ff33" stroke="#30363d" stroke-width="0.5" opacity="1"/><rect x="416" y="126" width="11" height="11" rx="2"
        fill="#58a6ff33" stroke="#30363d" stroke-width="0.5" opacity="1"/><rect x="416" y="140" width="11" height="11" rx="2"
        fill="#58a6ff66" stroke="#30363d" stroke-width="0.5" opacity="1"/><rect x="430" y="56" width="11" height="11" rx="2"
        fill="#58a6ff33" stroke="#30363d" stroke-width="0.5" opacity="1"/><rect x="430" y="70" width="11" height="11" rx="2"
        fill="#0d1117" stroke="#30363d" stroke-width="0.5" opacity="0.5"/><rect x="430" y="84" width="11" height="11" rx="2"
        fill="#0d1117" stroke="#30363d" stroke-width="0.5" opacity="0.5"/><rect x="430" y="98" width="11" height="11" rx="2"
        fill="#0d1117" stroke="#30363d" stroke-width="0.5" opacity="0.5"/><rect x="430" y="112" width="11" height="11" rx="2"
        fill="#0d1117" stroke="#30363d" stroke-width="0.5" opacity="0.5"/><rect x="430" y="126" width="11" height="11" rx="2"
        fill="#0d1117" stroke="#30363d" stroke-width="0.5" opacity="0.5"/><rect x="430" y="140" width="11" height="11" rx="2"
        fill="#0d1117" stroke="#30363d" stroke-width="0.5" opacity="0.5"/><rect x="444" y="56" width="11" height="11" rx="2"
        fill="#0d1117" stroke="#30363d" stroke-width="0.5" opacity="0.5"/><rect x="444" y="70" width="11" height="11" rx="2"
        fill="#0d1117" stroke="#30363d" stroke-width="0.5" opacity="0.5"/><rect x="444" y="84" width="11" height="11" rx="2"
        fill="#0d1117" stroke="#30363d" stroke-width="0.5" opacity="0.5"/><rect x="444" y="98" width="11" height="11" rx="2"
        fill="#0d1117" stroke="#30363d" stroke-width="0.5" opacity="0.5"/><rect x="444" y="112" width="11" height="11" rx="2"
        fill="#0d1117" stroke="#30363d" stroke-width="0.5" opacity="0.5"/><rect x="444" y="126" width="11" height="11" rx="2"
        fill="#0d1117" stroke="#30363d" stroke-width="0.5" opacity="0.5"/><rect x="444" y="140" width="11" height="11" rx="2"
        fill="#0d1117" stroke="#30363d" stroke-width="0.5" opacity="0.5"/><rect x="458" y="56" width="11" height="11" rx="2"
        fill="#0d1117" stroke="#30363d" stroke-width="0.5" opacity="0.5"/><rect x="458" y="70" width="11" height="11" rx="2"
        fill="#58a6ff66" stroke="#30363d" stroke-width="0.5" opacity="1"/><rect x="458" y="84" width="11" height="11" rx="2"
        fill="#0d1117" stroke="#30363d" stroke-width="0.5" opacity="0.5"/><rect x="458" y="98" width="11" height="11" rx="2"
        fill="#58a6ff" stroke="#30363d" stroke-width="0.5" opacity="1"/><rect x="458" y="112" width="11" height="11" rx="2"
        fill="#0d1117" stroke="#30363d" stroke-width="0.5" opacity="0.5"/><rect x="458" y="126" width="11" height="11" rx="2"
        fill="#0d1117" stroke="#30363d" stroke-width="0.5" opacity="0.5"/><rect x="458" y="140" width="11" height="11" rx="2"
        fill="#0d1117" stroke="#30363d" stroke-width="0.5" opacity="0.5"/><rect x="472" y="56" width="11" height="11" rx="2"
        fill="#0d1117" stroke="#30363d" stroke-width="0.5" opacity="0.5"/><rect x="472" y="70" width="11" height="11" rx="2"
        fill="#58a6ff33" stroke="#30363d" stroke-width="0.5" opacity="1"/><rect x="472" y="84" width="11" height="11" rx="2"
        fill="#58a6ff33" stroke="#30363d" stroke-width="0.5" opacity="1"/><rect x="472" y="98" width="11" height="11" rx="2"
        fill="#58a6ff33" stroke="#30363d" stroke-width="0.5" opacity="1"/><rect x="472" y="112" width="11" height="11" rx="2"
        fill="#58a6ff66" stroke="#30363d" stroke-width="0.5" opacity="1"/><rect x="472" y="126" width="11" height="11" rx="2"
        fill="#58a6ff33" stroke="#30363d" stroke-width="0.5" opacity="1"/><rect x="472" y="140" width="11" height="11" rx="2"
        fill="#58a6ff33" stroke="#30363d" stroke-width="0.5" opacity="1"/><rect x="486" y="56" width="11" height="11" rx="2"
        fill="#0d1117" stroke="#30363d" stroke-width="0.5" opacity="0.5"/><rect x="486" y="70" width="11" height="11" rx="2"
        fill="#0d1117" stroke="#30363d" stroke-width="0.5" opacity="0.5"/><rect x="486" y="84" width="11" height="11" rx="2"
        fill="#0d1117" stroke="#30363d" stroke-width="0.5" opacity="0.5"/><rect x="486" y="98" width="11" height="11" rx="2"
        fill="#0d1117" stroke="#30363d" stroke-width="0.5" opacity="0.5"/><rect x="486" y="112" width="11" height="11" rx="2"
        fill="#58a6ff33" stroke="#30363d" stroke-width="0.5" opacity="1"/><rect x="486" y="126" width="11" height="11" rx="2"
        fill="#58a6ff66" stroke="#30363d" stroke-width="0.5" opacity="1"/><rect x="486" y="140" width="11" height="11" rx="2"
        fill="#58a6ff33" stroke="#30363d" stroke-width="0.5" opacity="1"/><rect x="500" y="56" width="11" height="11" rx="2"
        fill="#58a6ff66" stroke="#30363d" stroke-width="0.5" opacity="1"/><rect x="500" y="70" width="11" height="11" rx="2"
        fill="#0d1117" stroke="#30363d" stroke-width="0.5" opacity="0.5"/><rect x="500" y="84" width="11" height="11" rx="2"
        fill="#58a6ff33" stroke="#30363d" stroke-width="0.5" opacity="1"/><rect x="500" y="98" width="11" height="11" rx="2"
        fill="#58a6ff33" stroke="#30363d" stroke-width="0.5" opacity="1"/><rect x="500" y="112" width="11" height="11" rx="2"
        fill="#0d1117" stroke="#30363d" stroke-width="0.5" opacity="0.5"/><rect x="500" y="126" width="11" height="11" rx="2"
        fill="#58a6ff66" stroke="#30363d" stroke-width="0.5" opacity="1"/><rect x="500" y="140" width="11" height="11" rx="2"
        fill="#58a6ff33" stroke="#30363d" stroke-width="0.5" opacity="1"/><rect x="514" y="56" width="11" height="11" rx="2"
        fill="#58a6ff66" stroke="#30363d" stroke-width="0.5" opacity="1"/><rect x="514" y="70" width="11" height="11" rx="2"
        fill="#0d1117" stroke="#30363d" stroke-width="0.5" opacity="0.5"/><rect x="514" y="84" width="11" height="11" rx="2"
        fill="#0d1117" stroke="#30363d" stroke-width="0.5" opacity="0.5"/><rect x="514" y="98" width="11" height="11" rx="2"
        fill="#0d1117" stroke="#30363d" stroke-width="0.5" opacity="0.5"/><rect x="514" y="112" width="11" height="11" rx="2"
        fill="#0d1117" stroke="#30363d" stroke-width="0.5" opacity="0.5"/><rect x="514" y="126" width="11" height="11" rx="2"
        fill="#0d1117" stroke="#30363d" stroke-width="0.5" opacity="0.5"/><rect x="514" y="140" width="11" height="11" rx="2"
        fill="#0d1117" stroke="#30363d" stroke-width="0.5" opacity="0.5"/><rect x="528" y="56" width="11" height="11" rx="2"
        fill="#0d1117" stroke="#30363d" stroke-width="0.5" opacity="0.5"/><rect x="528" y="70" width="11" height="11" rx="2"
        fill="#0d1117" stroke="#30363d" stroke-width="0.5" opacity="0.5"/><rect x="528" y="84" width="11" height="11" rx="2"
        fill="#0d1117" stroke="#30363d" stroke-width="0.5" opacity="0.5"/><rect x="528" y="98" width="11" height="11" rx="2"
        fill="#58a6ff33" stroke="#30363d" stroke-width="0.5" opacity="1"/><rect x="528" y="112" width="11" height="11" rx="2"
        fill="#58a6ffaa" stroke="#30363d" stroke-width="0.5" opacity="1"/><rect x="528" y="126" width="11" height="11" rx="2"
        fill="#58a6ff66" stroke="#30363d" stroke-width="0.5" opacity="1"/><rect x="528" y="140" width="11" height="11" rx="2"
        fill="#58a6ff" stroke="#30363d" stroke-width="0.5" opacity="1"/><rect x="542" y="56" width="11" height="11" rx="2"
        fill="#58a6ff33" stroke="#30363d" stroke-width="0.5" opacity="1"/><rect x="542" y="70" width="11" height="11" rx="2"
        fill="#58a6ff33" stroke="#30363d" stroke-width="0.5" opacity="1"/><rect x="542" y="84" width="11" height="11" rx="2"
        fill="#58a6ff33" stroke="#30363d" stroke-width="0.5" opacity="1"/><rect x="542" y="98" width="11" height="11" rx="2"
        fill="#58a6ff33" stroke="#30363d" stroke-width="0.5" opacity="1"/><rect x="542" y="112" width="11" height="11" rx="2"
        fill="#0d1117" stroke="#30363d" stroke-width="0.5" opacity="0.5"/><rect x="542" y="126" width="11" height="11" rx="2"
        fill="#0d1117" stroke="#30363d" stroke-width="0.5" opacity="0.5"/><rect x="542" y="140" width="11" height="11" rx="2"
        fill="#0d1117" stroke="#30363d" stroke-width="0.5" opacity="0.5"/><rect x="556" y="56" width="11" height="11" rx="2"
        fill="#0d1117" stroke="#30363d" stroke-width="0.5" opacity="0.5"/><rect x="556" y="70" width="11" height="11" rx="2"
        fill="#0d1117" stroke="#30363d" stroke-width="0.5" opacity="0.5"/><rect x="556" y="84" width="11" height="11" rx="2"
        fill="#0d1117" stroke="#30363d" stroke-width="0.5" opacity="0.5"/><rect x="556" y="98" width="11" height="11" rx="2"
        fill="#0d1117" stroke="#30363d" stroke-width="0.5" opacity="0.5"/><rect x="556" y="112" width="11" height="11" rx="2"
        fill="#0d1117" stroke="#30363d" stroke-width="0.5" opacity="0.5"/><rect x="556" y="126" width="11" height="11" rx="2"
        fill="#0d1117" stroke="#30363d" stroke-width="0.5" opacity="0.5"/><rect x="556" y="140" width="11" height="11" rx="2"
        fill="#0d1117" stroke="#30363d" stroke-width="0.5" opacity="0.5"/><rect x="570" y="56" width="11" height="11" rx="2"
        fill="#0d1117" stroke="#30363d" stroke-width="0.5" opacity="0.5"/><rect x="570" y="70" width="11" height="11" rx="2"
        fill="#0d1117" stroke="#30363d" stroke-width="0.5" opacity="0.5"/><rect x="570" y="84" width="11" height="11" rx="2"
        fill="#0d1117" stroke="#30363d" stroke-width="0.5" opacity="0.5"/><rect x="570" y="98" width="11" height="11" rx="2"
        fill="#0d1117" stroke="#30363d" stroke-width="0.5" opacity="0.5"/><rect x="570" y="112" width="11" height="11" rx="2"
        fill="#0d1117" stroke="#30363d" stroke-width="0.5" opacity="0.5"/><rect x="570" y="126" width="11" height="11" rx="2"
        fill="#0d1117" stroke="#30363d" stroke-width="0.5" opacity="0.5"/><rect x="570" y="140" width="11" height="11" rx="2"
        fill="#0d1117" stroke="#30363d" stroke-width="0.5" opacity="0.5"/><rect x="584" y="56" width="11" height="11" rx="2"
        fill="#0d1117" stroke="#30363d" stroke-width="0.5" opacity="0.5"/><rect x="584" y="70" width="11" height="11" rx="2"
        fill="#0d1117" stroke="#30363d" stroke-width="0.5" opacity="0.5"/><rect x="584" y="84" width="11" height="11" rx="2"
        fill="#0d1117" stroke="#30363d" stroke-width="0.5" opacity="0.5"/><rect x="584" y="98" width="11" height="11" rx="2"
        fill="#0d1117" stroke="#30363d" stroke-width="0.5" opacity="0.5"/><rect x="584" y="112" width="11" height="11" rx="2"
        fill="#0d1117" stroke="#30363d" stroke-width="0.5" opacity="0.5"/><rect x="584" y="126" width="11" height="11" rx="2"
        fill="#0d1117" stroke="#30363d" stroke-width="0.5" opacity="0.5"/><rect x="584" y="140" width="11" height="11" rx="2"
        fill="#0d1117" stroke="#30363d" stroke-width="0.5" opacity="0.5"/><rect x="598" y="56" width="11" height="11" rx="2"
        fill="#0d1117" stroke="#30363d" stroke-width="0.5" opacity="0.5"/><rect x="598" y="70" width="11" height="11" rx="2"
        fill="#0d1117" stroke="#30363d" stroke-width="0.5" opacity="0.5"/><rect x="598" y="84" width="11" height="11" rx="2"
        fill="#0d1117" stroke="#30363d" stroke-width="0.5" opacity="0.5"/><rect x="598" y="98" width="11" height="11" rx="2"
        fill="#0d1117" stroke="#30363d" stroke-width="0.5" opacity="0.5"/><rect x="598" y="112" width="11" height="11" rx="2"
        fill="#0d1117" stroke="#30363d" stroke-width="0.5" opacity="0.5"/><rect x="598" y="126" width="11" height="11" rx="2"
        fill="#0d1117" stroke="#30363d" stroke-width="0.5" opacity="0.5"/><rect x="598" y="140" width="11" height="11" rx="2"
        fill="#0d1117" stroke="#30363d" stroke-width="0.5" opacity="0.5"/><rect x="612" y="56" width="11" height="11" rx="2"
        fill="#0d1117" stroke="#30363d" stroke-width="0.5" opacity="0.5"/><rect x="612" y="70" width="11" height="11" rx="2"
        fill="#0d1117" stroke="#30363d" stroke-width="0.5" opacity="0.5"/><rect x="612" y="84" width="11" height="11" rx="2"
        fill="#0d1117" stroke="#30363d" stroke-width="0.5" opacity="0.5"/><rect x="612" y="98" width="11" height="11" rx="2"
        fill="#0d1117" stroke="#30363d" stroke-width="0.5" opacity="0.5"/><rect x="612" y="112" width="11" height="11" rx="2"
        fill="#0d1117" stroke="#30363d" stroke-width="0.5" opacity="0.5"/><rect x="612" y="126" width="11" height="11" rx="2"
        fill="#0d1117" stroke="#30363d" stroke-width="0.5" opacity="0.5"/><rect x="612" y="140" width="11" height="11" rx="2"
        fill="#0d1117" stroke="#30363d" stroke-width="0.5" opacity="0.5"/><rect x="626" y="56" width="11" height="11" rx="2"
        fill="#0d1117" stroke="#30363d" stroke-width="0.5" opacity="0.5"/><rect x="626" y="70" width="11" height="11" rx="2"
        fill="#0d1117" stroke="#30363d" stroke-width="0.5" opacity="0.5"/><rect x="626" y="84" width="11" height="11" rx="2"
        fill="#0d1117" stroke="#30363d" stroke-width="0.5" opacity="0.5"/><rect x="626" y="98" width="11" height="11" rx="2"
        fill="#0d1117" stroke="#30363d" stroke-width="0.5" opacity="0.5"/><rect x="626" y="112" width="11" height="11" rx="2"
        fill="#0d1117" stroke="#30363d" stroke-width="0.5" opacity="0.5"/><rect x="626" y="126" width="11" height="11" rx="2"
        fill="#0d1117" stroke="#30363d" stroke-width="0.5" opacity="0.5"/><rect x="626" y="140" width="11" height="11" rx="2"
        fill="#0d1117" stroke="#30363d" stroke-width="0.5" opacity="0.5"/><rect x="640" y="56" width="11" height="11" rx="2"
        fill="#0d1117" stroke="#30363d" stroke-width="0.5" opacity="0.5"/><rect x="640" y="70" width="11" height="11" rx="2"
        fill="#0d1117" stroke="#30363d" stroke-width="0.5" opacity="0.5"/><rect x="640" y="84" width="11" height="11" rx="2"
        fill="#0d1117" stroke="#30363d" stroke-width="0.5" opacity="0.5"/><rect x="640" y="98" width="11" height="11" rx="2"
        fill="#0d1117" stroke="#30363d" stroke-width="0.5" opacity="0.5"/><rect x="640" y="112" width="11" height="11" rx="2"
        fill="#0d1117" stroke="#30363d" stroke-width="0.5" opacity="0.5"/><rect x="640" y="126" width="11" height="11" rx="2"
        fill="#0d1117" stroke="#30363d" stroke-width="0.5" opacity="0.5"/><rect x="640" y="140" width="11" height="11" rx="2"
        fill="#0d1117" stroke="#30363d" stroke-width="0.5" opacity="0.5"/><rect x="654" y="56" width="11" height="11" rx="2"
        fill="#0d1117" stroke="#30363d" stroke-width="0.5" opacity="0.5"/><rect x="654" y="70" width="11" height="11" rx="2"
        fill="#0d1117" stroke="#30363d" stroke-width="0.5" opacity="0.5"/><rect x="654" y="84" width="11" height="11" rx="2"
        fill="#0d1117" stroke="#30363d" stroke-width="0.5" opacity="0.5"/><rect x="654" y="98" width="11" height="11" rx="2"
        fill="#0d1117" stroke="#30363d" stroke-width="0.5" opacity="0.5"/><rect x="654" y="112" width="11" height="11" rx="2"
        fill="#0d1117" stroke="#30363d" stroke-width="0.5" opacity="0.5"/><rect x="654" y="126" width="11" height="11" rx="2"
        fill="#0d1117" stroke="#30363d" stroke-width="0.5" opacity="0.5"/><rect x="654" y="140" width="11" height="11" rx="2"
        fill="#0d1117" stroke="#30363d" stroke-width="0.5" opacity="0.5"/><rect x="668" y="56" width="11" height="11" rx="2"
        fill="#0d1117" stroke="#30363d" stroke-width="0.5" opacity="0.5"/><rect x="668" y="70" width="11" height="11" rx="2"
        fill="#0d1117" stroke="#30363d" stroke-width="0.5" opacity="0.5"/><rect x="668" y="84" width="11" height="11" rx="2"
        fill="#58a6ff33" stroke="#30363d" stroke-width="0.5" opacity="1"/><rect x="668" y="98" width="11" height="11" rx="2"
        fill="#0d1117" stroke="#30363d" stroke-width="0.5" opacity="0.5"/><rect x="668" y="112" width="11" height="11" rx="2"
        fill="#0d1117" stroke="#30363d" stroke-width="0.5" opacity="0.5"/><rect x="668" y="126" width="11" height="11" rx="2"
        fill="#0d1117" stroke="#30363d" stroke-width="0.5" opacity="0.5"/><rect x="668" y="140" width="11" height="11" rx="2"
        fill="#0d1117" stroke="#30363d" stroke-width="0.5" opacity="0.5"/><rect x="682" y="56" width="11" height="11" rx="2"
        fill="#0d1117" stroke="#30363d" stroke-width="0.5" opacity="0.5"/><rect x="682" y="70" width="11" height="11" rx="2"
        fill="#0d1117" stroke="#30363d" stroke-width="0.5" opacity="0.5"/><rect x="682" y="84" width="11" height="11" rx="2"
        fill="#0d1117" stroke="#30363d" stroke-width="0.5" opacity="0.5"/><rect x="682" y="98" width="11" height="11" rx="2"
        fill="#0d1117" stroke="#30363d" stroke-width="0.5" opacity="0.5"/><rect x="682" y="112" width="11" height="11" rx="2"
        fill="#0d1117" stroke="#30363d" stroke-width="0.5" opacity="0.5"/><rect x="682" y="126" width="11" height="11" rx="2"
        fill="#0d1117" stroke="#30363d" stroke-width="0.5" opacity="0.5"/><rect x="682" y="140" width="11" height="11" rx="2"
        fill="#0d1117" stroke="#30363d" stroke-width="0.5" opacity="0.5"/><rect x="696" y="56" width="11" height="11" rx="2"
        fill="#0d1117" stroke="#30363d" stroke-width="0.5" opacity="0.5"/><rect x="696" y="70" width="11" height="11" rx="2"
        fill="#0d1117" stroke="#30363d" stroke-width="0.5" opacity="0.5"/><rect x="696" y="84" width="11" height="11" rx="2"
        fill="#0d1117" stroke="#30363d" stroke-width="0.5" opacity="0.5"/><rect x="696" y="98" width="11" height="11" rx="2"
        fill="#0d1117" stroke="#30363d" stroke-width="0.5" opacity="0.5"/><rect x="696" y="112" width="11" height="11" rx="2"
        fill="#0d1117" stroke="#30363d" stroke-width="0.5" opacity="0.5"/><rect x="696" y="126" width="11" height="11" rx="2"
        fill="#0d1117" stroke="#30363d" stroke-width="0.5" opacity="0.5"/><rect x="696" y="140" width="11" height="11" rx="2"
        fill="#0d1117" stroke="#30363d" stroke-width="0.5" opacity="0.5"/><rect x="710" y="56" width="11" height="11" rx="2"
        fill="#0d1117" stroke="#30363d" stroke-width="0.5" opacity="0.5"/><rect x="710" y="70" width="11" height="11" rx="2"
        fill="#0d1117" stroke="#30363d" stroke-width="0.5" opacity="0.5"/><rect x="710" y="84" width="11" height="11" rx="2"
        fill="#58a6ff66" stroke="#30363d" stroke-width="0.5" opacity="1"/><rect x="710" y="98" width="11" height="11" rx="2"
        fill="#58a6ff33" stroke="#30363d" stroke-width="0.5" opacity="1"/><rect x="710" y="112" width="11" height="11" rx="2"
        fill="#0d1117" stroke="#30363d" stroke-width="0.5" opacity="0.5"/><rect x="710" y="126" width="11" height="11" rx="2"
        fill="#0d1117" stroke="#30363d" stroke-width="0.5" opacity="0.5"/><rect x="710" y="140" width="11" height="11" rx="2"
        fill="#0d1117" stroke="#30363d" stroke-width="0.5" opacity="0.5"/><rect x="724" y="56" width="11" height="11" rx="2"
        fill="#0d1117" stroke="#30363d" stroke-width="0.5" opacity="0.5"/><rect x="724" y="70" width="11" height="11" rx="2"
        fill="#0d1117" stroke="#30363d" stroke-width="0.5" opacity="0.5"/><rect x="724" y="84" width="11" height="11" rx="2"
        fill="#0d1117" stroke="#30363d" stroke-width="0.5" opacity="0.5"/><rect x="724" y="98" width="11" height="11" rx="2"
        fill="#0d1117" stroke="#30363d" stroke-width="0.5" opacity="0.5"/><rect x="724" y="112" width="11" height="11" rx="2"
        fill="#0d1117" stroke="#30363d" stroke-width="0.5" opacity="0.5"/><rect x="724" y="126" width="11" height="11" rx="2"
        fill="#0d1117" stroke="#30363d" stroke-width="0.5" opacity="0.5"/><rect x="724" y="140" width="11" height="11" rx="2"
        fill="#0d1117" stroke="#30363d" stroke-width="0.5" opacity="0.5"/><rect x="738" y="56" width="11" height="11" rx="2"
        fill="#0d1117" stroke="#30363d" stroke-width="0.5" opacity="0.5"/><rect x="738" y="70" width="11" height="11" rx="2"
        fill="#0d1117" stroke="#30363d" stroke-width="0.5" opacity="0.5"/><rect x="738" y="84" width="11" height="11" rx="2"
        fill="#0d1117" stroke="#30363d" stroke-width="0.5" opacity="0.5"/><rect x="738" y="98" width="11" height="11" rx="2"
        fill="#0d1117" stroke="#30363d" stroke-width="0.5" opacity="0.5"/><rect x="738" y="112" width="11" height="11" rx="2"
        fill="#0d1117" stroke="#30363d" stroke-width="0.5" opacity="0.5"/><rect x="738" y="126" width="11" height="11" rx="2"
        fill="#0d1117" stroke="#30363d" stroke-width="0.5" opacity="0.5"/><rect x="738" y="140" width="11" height="11" rx="2"
        fill="#0d1117" stroke="#30363d" stroke-width="0.5" opacity="0.5"/><rect x="752" y="56" width="11" height="11" rx="2"
        fill="#0d1117" stroke="#30363d" stroke-width="0.5" opacity="0.5"/><rect x="752" y="70" width="11" height="11" rx="2"
        fill="#58a6ff33" stroke="#30363d" stroke-width="0.5" opacity="1"/><rect x="752" y="84" width="11" height="11" rx="2"
        fill="#0d1117" stroke="#30363d" stroke-width="0.5" opacity="0.5"/><rect x="752" y="98" width="11" height="11" rx="2"
        fill="#0d1117" stroke="#30363d" stroke-width="0.5" opacity="0.5"/><rect x="752" y="112" width="11" height="11" rx="2"
        fill="#58a6ff33" stroke="#30363d" stroke-width="0.5" opacity="1"/><rect x="752" y="126" width="11" height="11" rx="2"
        fill="#58a6ff66" stroke="#30363d" stroke-width="0.5" opacity="1"/>

  <!-- Legend: Less → More -->
  <text x="698" y="172" font-family="Arial,sans-serif" font-size="9" fill="#8b949e" text-anchor="end">Less</text>
  
    <rect x="704" y="162" width="11" height="11" rx="2"
      fill="#0d1117" stroke="#30363d" stroke-width="0.5" opacity="0.5"/>
  
    <rect x="719" y="162" width="11" height="11" rx="2"
      fill="#58a6ff33" stroke="#30363d" stroke-width="0.5" opacity="1"/>
  
    <rect x="734" y="162" width="11" height="11" rx="2"
      fill="#58a6ff66" stroke="#30363d" stroke-width="0.5" opacity="1"/>
  
    <rect x="749" y="162" width="11" height="11" rx="2"
      fill="#58a6ffaa" stroke="#30363d" stroke-width="0.5" opacity="1"/>
  
    <rect x="764" y="162" width="11" height="11" rx="2"
      fill="#58a6ff" stroke="#30363d" stroke-width="0.5" opacity="1"/>
  
  <text x="781" y="172" font-family="Arial,sans-serif" font-size="9" fill="#8b949e">More</text>

</svg>